<svg width="19" height="19" viewBox="0 0 19 19" fill="none" xmlns="http://www.w3.org/2000/svg">
<path d="M8.3629 0C8.69891 0.0480956 9.03741 0.0832269 9.37057 0.146514C10.9895 0.454005 12.3752 1.20579 13.5286 2.3775C14.5778 3.44342 15.2714 4.70986 15.5693 6.17855C15.9436 8.02473 15.6853 9.78532 14.7601 11.4287C14.4637 11.9552 14.0889 12.4376 13.7501 12.9401C13.7181 12.9522 13.6862 12.9642 13.6541 12.9762C13.7143 13.0072 13.7866 13.0258 13.8328 13.0711C15.3654 14.5751 16.8966 16.0806 18.4235 17.5904C18.5326 17.6982 18.6071 17.8409 18.6978 17.9674V18.223C18.6181 18.4599 18.4552 18.6134 18.223 18.6978H17.9674C17.8202 18.5941 17.6555 18.5085 17.5286 18.3842C15.9975 16.8856 14.472 15.3813 12.9449 13.8786C12.9064 13.8408 12.8659 13.8048 12.8191 13.7612C12.7663 13.7972 12.7155 13.8286 12.6683 13.8646C11.6533 14.6382 10.5152 15.1428 9.26046 15.3566C7.38521 15.6761 5.60063 15.3961 3.94278 14.4417C2.21795 13.4487 1.02144 12.0114 0.381222 10.1218C0.19136 9.56138 0.0757405 8.98372 0.031589 8.39252C0.0281197 8.34559 0.0108827 8.29968 0 8.25331V7.23077C0.0111748 7.17818 0.0251616 7.12604 0.0330497 7.07297C0.0785525 6.76669 0.106197 6.45668 0.169996 6.1543C0.475332 4.70727 1.15265 3.45485 2.1853 2.39883C3.34467 1.21327 4.73853 0.453859 6.37111 0.145273C6.69182 0.0846146 7.01714 0.0478034 7.34037 0H8.3629ZM1.20747 7.70234C1.22185 7.97342 1.22109 8.19973 1.24771 8.42279C1.41628 9.83509 1.9537 11.0874 2.93504 12.1236C4.65216 13.9367 6.77355 14.6182 9.20455 14.1453C11.3358 13.7307 12.9285 12.5043 13.8726 10.532C14.8242 8.54411 14.7663 6.53479 13.7007 4.61389C12.6086 2.64493 10.8855 1.5227 8.65103 1.24789C6.88662 1.03086 5.26393 1.46021 3.84191 2.53782C2.1219 3.84129 1.26637 5.59713 1.20747 7.70234Z" fill="black"/>
</svg>
