<svg width="21" height="21" viewBox="0 0 21 21" fill="none" xmlns="http://www.w3.org/2000/svg">
<ellipse cx="10.5" cy="10.4997" rx="10.5" ry="10.4997" fill="#005CFF"/>
<path d="M13.036 12.98C13.228 12.98 13.372 13.024 13.468 13.112C13.572 13.2 13.624 13.324 13.624 13.484C13.624 13.828 13.428 14 13.036 14H8.40403C8.22803 14 8.08803 13.952 7.98403 13.856C7.88803 13.752 7.84003 13.624 7.84003 13.472C7.84003 13.288 7.91203 13.12 8.05603 12.968L10.876 9.88404C11.252 9.47604 11.524 9.10404 11.692 8.76804C11.86 8.43204 11.944 8.10004 11.944 7.77204C11.944 7.34804 11.82 7.02404 11.572 6.80004C11.332 6.56804 10.988 6.45204 10.54 6.45204C9.86003 6.45204 9.18403 6.71204 8.51203 7.23204C8.42403 7.28804 8.34803 7.33204 8.28403 7.36404C8.22803 7.38804 8.16803 7.40004 8.10403 7.40004C7.99203 7.40004 7.89603 7.34804 7.81603 7.24404C7.73603 7.14004 7.69603 7.01604 7.69603 6.87204C7.69603 6.67204 7.77603 6.51204 7.93603 6.39204C8.27203 6.10404 8.67603 5.87604 9.14803 5.70804C9.62003 5.53204 10.096 5.44404 10.576 5.44404C11.368 5.44404 11.996 5.64804 12.46 6.05604C12.932 6.45604 13.168 7.00004 13.168 7.68804C13.168 8.17604 13.06 8.64004 12.844 9.08004C12.636 9.52004 12.284 10.012 11.788 10.556L9.52003 12.98H13.036Z" fill="white"/>
</svg>
