<svg width="26" height="25" viewBox="0 0 26 25" fill="none" xmlns="http://www.w3.org/2000/svg">
<path d="M8.75642 24.7675C8.36104 24.6283 7.92918 24.55 7.57639 24.3395C5.88812 23.3319 5.85575 20.9008 7.50255 19.8221C7.67022 19.7123 7.70117 19.6238 7.6492 19.4348C6.49361 15.2308 5.34101 11.0259 4.19813 6.81838C3.76549 5.22546 3.35857 3.62554 2.93947 2.02895C2.91923 1.95179 2.89459 1.87581 2.86804 1.78584H0.0527344V0.612305H3.42664C3.72217 0.716602 3.86573 0.930918 3.94186 1.23276C4.1485 2.05237 4.37905 2.86597 4.60031 3.68187C4.79977 4.41748 4.99941 5.15304 5.20268 5.90219H5.53278C11.7867 5.90219 18.0407 5.9038 24.2946 5.89808C24.6545 5.89779 24.9296 5.99441 25.0881 6.33327V6.67555C25.0582 6.74855 25.0199 6.81926 24.9997 6.89485C24.1788 9.95107 23.3593 13.0076 22.5402 16.0644C22.2179 17.2672 21.3659 17.9232 20.1192 17.9234C16.4602 17.9238 12.8012 17.9241 9.14217 17.922C8.9258 17.9218 8.70943 17.8995 8.47698 17.8866C8.58641 18.2858 8.70987 18.6662 8.79036 19.0556C8.8396 19.2939 8.94179 19.355 9.17836 19.3545C12.8537 19.3466 16.529 19.3467 20.2044 19.3501C21.6302 19.3514 22.7592 20.3824 22.9225 21.8171C23.0721 23.1333 22.1458 24.3881 20.7987 24.693C20.6805 24.7197 20.5615 24.7427 20.4428 24.7675H20.0517C19.9968 24.7532 19.9428 24.7334 19.8871 24.7255C17.9765 24.4529 16.9651 22.4088 17.9065 20.7217C17.94 20.6618 17.9696 20.5997 18.0052 20.5305H11.2094C11.2671 20.6365 11.3143 20.7204 11.359 20.8055C12.1216 22.2596 11.4259 24.0484 9.87905 24.5949C9.65872 24.6727 9.42436 24.7109 9.1965 24.7675H8.75642ZM23.7298 7.08633H5.49489C5.51542 7.17806 5.5296 7.25669 5.55073 7.33341C6.32716 10.1565 7.10478 12.9793 7.88082 15.8025C8.07661 16.5148 8.45976 16.8094 9.20447 16.8095C12.822 16.8097 16.4394 16.8097 20.0569 16.8095C20.8538 16.8095 21.2178 16.5275 21.4211 15.7629C21.9833 13.6485 22.5475 11.5346 23.1105 9.42029C23.3152 8.65158 23.5186 7.88257 23.7298 7.08633ZM20.2545 23.603C21.107 23.5993 21.7911 22.9152 21.7939 22.0636C21.7966 21.2095 21.0925 20.5095 20.2352 20.514C19.3902 20.5184 18.6967 21.2135 18.6946 22.0582C18.6925 22.9156 19.3904 23.6067 20.2545 23.603ZM8.96609 23.6032C9.82101 23.6065 10.5105 22.9315 10.5187 22.0833C10.527 21.2188 9.84243 20.5172 8.98736 20.514C8.13763 20.5107 7.44217 21.1938 7.43488 22.0389C7.4274 22.9087 8.10389 23.5999 8.96609 23.6032Z" fill="black"/>
</svg>
