<svg width="54" height="21" viewBox="0 0 54 21" fill="none" xmlns="http://www.w3.org/2000/svg">
<path d="M14.7873 18.2905C17.8337 18.2905 19.6432 15.9082 19.6432 11.874C19.6432 10.355 19.3527 9.07666 18.7966 8.08887C17.9914 6.55322 16.6052 5.72314 14.8537 5.72314C12.2473 5.72314 10.4045 7.47461 10.4045 9.93164C10.4045 12.2393 12.0646 13.916 14.3474 13.916C15.7502 13.916 16.8874 13.2603 17.4518 12.123H17.4767C17.4767 12.123 17.5099 12.123 17.5182 12.123C17.5349 12.123 17.593 12.123 17.593 12.123C17.593 14.8623 16.5554 16.4976 14.8039 16.4976C13.7746 16.4976 12.9777 15.9331 12.7038 15.0283H10.5705C10.9274 16.9956 12.5959 18.2905 14.7873 18.2905ZM14.862 12.2144C13.4841 12.2144 12.5046 11.2349 12.5046 9.86523C12.5046 8.52881 13.5339 7.50781 14.8703 7.50781C16.2067 7.50781 17.236 8.54541 17.236 9.89844C17.236 11.2349 16.2316 12.2144 14.862 12.2144ZM22.9955 16.73C23.7841 16.73 24.3236 16.1655 24.3236 15.4185C24.3236 14.6631 23.7841 14.1069 22.9955 14.1069C22.2152 14.1069 21.6674 14.6631 21.6674 15.4185C21.6674 16.1655 22.2152 16.73 22.9955 16.73ZM22.9955 10.5044C23.7841 10.5044 24.3236 9.94824 24.3236 9.20117C24.3236 8.4458 23.7841 7.88965 22.9955 7.88965C22.2152 7.88965 21.6674 8.4458 21.6674 9.20117C21.6674 9.94824 22.2152 10.5044 22.9955 10.5044ZM32.1915 18H34.2418V15.7671H35.8605V13.9575H34.2418V6.02197H31.2203C29.1036 9.20947 27.4186 11.874 26.3395 13.8579V15.7671H32.1915V18ZM28.3233 13.8828C29.7179 11.4258 30.963 9.4585 32.1085 7.76514H32.2247V14.0073H28.3233V13.8828ZM40.3582 18H42.4998V6.02197H40.3665L37.2371 8.21338V10.272L40.2171 8.18018H40.3582V18Z" fill="black"/>
</svg>
